<?xml version="1.0" encoding="UTF-8" standalone="no"?>
<!DOCTYPE svg PUBLIC "-//W3C//DTD SVG 1.1//EN" "http://www.w3.org/Graphics/SVG/1.1/DTD/svg11.dtd">
<svg width="100%" height="100%" viewBox="0 0 600 600" version="1.1" xmlns="http://www.w3.org/2000/svg" xmlns:xlink="http://www.w3.org/1999/xlink" xml:space="preserve" xmlns:serif="http://www.serif.com/" style="fill-rule:evenodd;clip-rule:evenodd;stroke-linejoin:round;stroke-miterlimit:1.41421;">
    <g transform="matrix(2.32453,0,0,2.32453,-397.358,-397.358)">
        <g transform="matrix(1,0,0,1,-173.5,23.5)">
            <path d="M473.5,160L447.87,180.849L415.25,175.608L403.479,206.479L372.608,218.25L377.849,250.87L357,276.5L377.849,302.13L372.608,334.75L403.479,346.521L415.25,377.392L447.87,372.151L473.5,393L499.13,372.151L531.75,377.392L543.521,346.521L574.392,334.75L569.151,302.13L590,276.5L569.151,250.87L574.392,218.25L543.521,206.479L531.75,175.608L499.13,180.849L473.5,160ZM473.5,188.089C522.295,188.089 561.911,227.705 561.911,276.5C561.911,325.295 522.295,364.911 473.5,364.911C424.705,364.911 385.089,325.295 385.089,276.5C385.089,227.705 424.705,188.089 473.5,188.089Z" style="fill:rgb(0,166,255);"/>
        </g>
        <g transform="matrix(3.66467,0,0,3.66467,-1987.41,-721.632)">
            <text x="601.45px" y="284.097px" style="font-family:'Krungthep';font-size:12px;fill:rgb(49,187,255);">Flutter</text>
        </g>
        <g transform="matrix(1,0,0,1,-70.5,56.5)">
            <g transform="matrix(0.309227,0.315625,-0.315625,0.309227,308.562,-14.7527)">
                <path d="M381.25,188.25L359.75,188.25C353.817,188.25 349,183.433 349,177.5L349,156C349,150.067 353.817,145.25 359.75,145.25L381.25,145.25C387.183,145.25 392,150.067 392,156L392,177.5C392,183.433 387.183,188.25 381.25,188.25Z" style="fill:rgb(0,166,255);"/>
            </g>
            <g transform="matrix(0.309227,0.315625,-0.315625,0.309227,308.562,-14.7527)">
                <ellipse cx="370.5" cy="166.75" rx="12.069" ry="12.5" style="fill:white;"/>
            </g>
        </g>
        <g transform="matrix(0.720151,0.693817,-0.693817,0.720151,80.4817,0.183713)">
            <g transform="matrix(0.309227,0.315625,-0.315625,0.309227,308.562,-14.7527)">
                <path d="M381.25,188.25L359.75,188.25C353.817,188.25 349,183.433 349,177.5L349,156C349,150.067 353.817,145.25 359.75,145.25L381.25,145.25C387.183,145.25 392,150.067 392,156L392,177.5C392,183.433 387.183,188.25 381.25,188.25Z" style="fill:rgb(0,166,255);"/>
            </g>
            <g transform="matrix(0.309227,0.315625,-0.315625,0.309227,308.562,-14.7527)">
                <ellipse cx="370.5" cy="166.75" rx="12.069" ry="12.5" style="fill:white;"/>
            </g>
        </g>
        <g transform="matrix(0.732667,-0.680588,0.680588,0.732667,-17.3073,507.298)">
            <g transform="matrix(0.309227,0.315625,-0.315625,0.309227,308.562,-14.7527)">
                <path d="M381.25,188.25L359.75,188.25C353.817,188.25 349,183.433 349,177.5L349,156C349,150.067 353.817,145.25 359.75,145.25L381.25,145.25C387.183,145.25 392,150.067 392,156L392,177.5C392,183.433 387.183,188.25 381.25,188.25Z" style="fill:rgb(0,166,255);"/>
            </g>
            <g transform="matrix(0.309227,0.315625,-0.315625,0.309227,308.562,-14.7527)">
                <ellipse cx="370.5" cy="166.75" rx="12.069" ry="12.5" style="fill:white;"/>
            </g>
        </g>
        <g transform="matrix(0.900328,-0.435213,0.435213,0.900328,-18.8683,286.071)">
            <g transform="matrix(0.309227,0.315625,-0.315625,0.309227,308.562,-14.7527)">
                <path d="M381.25,188.25L359.75,188.25C353.817,188.25 349,183.433 349,177.5L349,156C349,150.067 353.817,145.25 359.75,145.25L381.25,145.25C387.183,145.25 392,150.067 392,156L392,177.5C392,183.433 387.183,188.25 381.25,188.25Z" style="fill:rgb(0,166,255);"/>
            </g>
            <g transform="matrix(0.309227,0.315625,-0.315625,0.309227,308.562,-14.7527)">
                <ellipse cx="370.5" cy="166.75" rx="12.069" ry="12.5" style="fill:white;"/>
            </g>
        </g>
        <g transform="matrix(0.866949,0.498397,-0.498397,0.866949,-26.959,-54.6995)">
            <g transform="matrix(0.309227,0.315625,-0.315625,0.309227,308.562,-14.7527)">
                <path d="M381.25,188.25L359.75,188.25C353.817,188.25 349,183.433 349,177.5L349,156C349,150.067 353.817,145.25 359.75,145.25L381.25,145.25C387.183,145.25 392,150.067 392,156L392,177.5C392,183.433 387.183,188.25 381.25,188.25Z" style="fill:rgb(0,166,255);"/>
            </g>
            <g transform="matrix(0.309227,0.315625,-0.315625,0.309227,308.562,-14.7527)">
                <ellipse cx="370.5" cy="166.75" rx="12.069" ry="12.5" style="fill:white;"/>
            </g>
        </g>
    </g>
</svg>
